<svg width="32" height="32" viewBox="0 0 32 32" fill="none" xmlns="http://www.w3.org/2000/svg">
  <g id="fd35eb6bd2605a2b6e537e224f38d6d5" clip-path="url(#clip0_240_186)">
    <path id="32d65cded330e12dd102aebb1d9b167f" d="M25.8 5.6H24.5V3H21.9V5.6H11.5V3H8.9V5.6H7.6C6.157 5.6 5.013 6.77 5.013 8.2L5 26.4C5 27.83 6.157 29 7.6 29H25.8C27.23 29 28.4 27.83 28.4 26.4V8.2C28.4 6.77 27.23 5.6 25.8 5.6ZM25.8 26.4H7.6V13.4H25.8V26.4ZM25.8 10.8H7.6V8.2H25.8V10.8ZM16.7 17.3H23.2V23.8H16.7V17.3Z" fill="#464343"></path>
  </g>
  <defs>
    <clipPath id="clip0_240_186">
      <rect width="32" height="32" fill="white"></rect>
    </clipPath>
  </defs>
</svg>