<svg width="32" height="32" viewBox="0 0 32 32" fill="none" xmlns="http://www.w3.org/2000/svg">
  <g id="06e62cda14c30c08674604a9629c00f8" clip-path="url(#clip0_240_201)">
    <path id="da7c574efe060c5011fc0bfc8650c6b2" d="M11.2 19C7.456 19 0 20.872 0 24.6V27.4H22.4V24.6C22.4 20.872 14.944 19 11.2 19ZM3.744 24.2C5.088 23.272 8.336 22.2 11.2 22.2C14.064 22.2 17.312 23.272 18.656 24.2H3.744ZM11.2 16.2C14.288 16.2 16.8 13.688 16.8 10.6C16.8 7.512 14.288 5 11.2 5C8.112 5 5.6 7.512 5.6 10.6C5.6 13.688 8.112 16.2 11.2 16.2ZM11.2 8.2C12.528 8.2 13.6 9.272 13.6 10.6C13.6 11.928 12.528 13 11.2 13C9.872 13 8.8 11.928 8.8 10.6C8.8 9.272 9.872 8.2 11.2 8.2ZM22.464 19.096C24.32 20.44 25.6 22.232 25.6 24.6V27.4H32V24.6C32 21.368 26.4 19.528 22.464 19.096V19.096ZM20.8 16.2C23.888 16.2 26.4 13.688 26.4 10.6C26.4 7.512 23.888 5 20.8 5C19.936 5 19.136 5.208 18.4 5.56C19.408 6.984 20 8.728 20 10.6C20 12.472 19.408 14.216 18.4 15.64C19.136 15.992 19.936 16.2 20.8 16.2Z" fill="#464343"></path>
  </g>
  <defs>
    <clipPath id="clip0_240_201">
      <rect width="32" height="32" fill="white"></rect>
    </clipPath>
  </defs>
</svg>