<svg width="32" height="32" viewBox="0 0 32 32" fill="none" xmlns="http://www.w3.org/2000/svg">
	<g id="32d36d34a2dfb2e42ad20a9894e24a5b" clip-path="url(#clip0_2971_3496)">
		<path id="2089a3ba84b239c5d74d02f5730fab2e"
			d="M15.4872 30C17.0667 30 18.359 28.7077 18.359 27.1282H12.6154C12.6154 28.7077 13.9077 30 15.4872 30ZM24.1026 21.3846V14.2051C24.1026 9.79692 21.7621 6.10667 17.641 5.13026V4.15385C17.641 2.96205 16.679 2 15.4872 2C14.2954 2 13.3333 2.96205 13.3333 4.15385V5.13026C9.22667 6.10667 6.87179 9.78256 6.87179 14.2051V21.3846L4 24.2564V25.6923H26.9744V24.2564L24.1026 21.3846ZM21.2308 22.8205H9.74359V14.2051C9.74359 10.6441 11.9118 7.74359 15.4872 7.74359C19.0626 7.74359 21.2308 10.6441 21.2308 14.2051V22.8205Z"
			fill="black"></path>
	</g>
	<defs>
		<clipPath id="clip0_2971_3496">
			<rect width="32" height="32" fill="white"></rect>
		</clipPath>
	</defs>
</svg>