<svg width="32" height="32" viewBox="0 0 32 32" fill="none" xmlns="http://www.w3.org/2000/svg">
  <g id="b9c9fae7f1ebd438629cd213f9d510fa">
    <g id="e272629cbf9f5231ea0573167d8c9235">
      <path id="563b196901042c8d16ed7202ef4dd59d" d="M16.0001 9.33341C12.3201 9.33341 9.33341 12.3201 9.33341 16.0001C9.33341 19.6801 12.3201 22.6667 16.0001 22.6667C19.6801 22.6667 22.6667 19.6801 22.6667 16.0001C22.6667 12.3201 19.6801 9.33341 16.0001 9.33341ZM16.0001 2.66675C8.64008 2.66675 2.66675 8.64008 2.66675 16.0001C2.66675 23.3601 8.64008 29.3334 16.0001 29.3334C23.3601 29.3334 29.3334 23.3601 29.3334 16.0001C29.3334 8.64008 23.3601 2.66675 16.0001 2.66675ZM16.0001 26.6667C10.1067 26.6667 5.33341 21.8934 5.33341 16.0001C5.33341 10.1067 10.1067 5.33341 16.0001 5.33341C21.8934 5.33341 26.6667 10.1067 26.6667 16.0001C26.6667 21.8934 21.8934 26.6667 16.0001 26.6667Z" fill="#464343"></path>
    </g>
  </g>
</svg>